<?xml version="1.0" encoding="UTF-8" standalone="no"?><!DOCTYPE svg PUBLIC "-//W3C//DTD SVG 1.1//EN" "http://www.w3.org/Graphics/SVG/1.1/DTD/svg11.dtd"><svg width="100%" height="100%" viewBox="0 0 3508 4961" version="1.1" xmlns="http://www.w3.org/2000/svg" xmlns:xlink="http://www.w3.org/1999/xlink" xml:space="preserve" xmlns:serif="http://www.serif.com/" style="fill-rule:evenodd;clip-rule:evenodd;stroke-linejoin:round;stroke-miterlimit:2;"><path d="M981.773,3581.86l-300.139,-0l75.361,-196.233c89.342,-153.756 235.813,-331.745 467.605,-486.313c-16.824,47.365 -33.507,94.313 -49.784,140.101c-104.98,295.328 -193.043,542.445 -193.043,542.445Zm293.6,-825.546c-137.346,62.301 -255.332,132.975 -356.463,207.701l583.005,-1518.09l304.509,0l441.327,1078.31c-24.874,1.921 -52.52,4.29 -81.929,7.195c-65.263,6.445 -128.266,14.399 -189.083,23.733l-329.126,-884.861c0,-0 -100.218,313.658 -154.368,469.118c-34.975,100.409 -98.708,280.803 -169.598,480.791c-10.881,30.697 -21.931,61.856 -33.071,93.258l-15.203,42.847Zm981.527,-209.729l423.713,1035.28l-321.993,-0l-368.564,-990.894c83.884,-17.824 172.74,-32.773 266.844,-44.381Z" style="fill:#33ccb1;"/><path d="M2247.75,2524.24c-24.874,1.921 -52.52,4.29 -81.929,7.195c-65.263,6.445 -128.266,14.399 -189.083,23.733c-105.091,16.13 -203.654,36.382 -296.07,60.098c-140.505,41.682 -281.382,98.224 -417.056,174.189l11.76,-33.134c-137.346,62.301 -255.332,132.975 -356.463,207.701l18.241,-47.496c51.155,-37.67 107.039,-74.463 168.024,-109.543c60.863,-35.01 122.833,-66.041 185.401,-93.509c226.49,-99.431 460.815,-152.17 678.851,-177.964c95.368,-11.283 187.62,-17.41 274.737,-20.035c1.921,-0.058 3.839,-0.114 5.755,-0.168c41.897,-1.192 82.59,-1.577 121.852,-1.342c0.12,0.275 0.216,0.497 0.215,0.501c-0.227,0.511 -0.287,1.145 -0.687,1.529c-0.431,0.415 -1.056,0.592 -1.637,0.705c-0.829,0.16 -49.688,1.962 -121.911,7.54Zm-1592.56,1096.46l0.041,-0.074l-0.038,0.097c0.001,-0.008 -0.001,-0.016 -0.003,-0.023Z" style="fill:#fff;"/><path d="M918.91,2964.02l85.29,-222.085c105.307,-50.024 212.52,-89.987 319.447,-121.721c220.042,-65.304 438.869,-95.76 637.364,-107.333c99.194,-5.784 193.311,-6.852 279.965,-5.197c19.766,0.378 39.143,0.897 58.104,1.534c12.347,0.415 23.68,0.854 33.611,1.269c17.215,0.72 30.214,1.372 36.967,1.712c0.931,0.047 0.968,0.055 1.645,0.711c0.009,0.008 0.271,0.602 0.468,1.053c0.12,0.275 0.216,0.497 0.215,0.501c-0.227,0.511 -0.287,1.145 -0.687,1.529c-0.431,0.415 -1.056,0.592 -1.637,0.705c-0.829,0.16 -49.688,1.962 -121.911,7.54c-24.874,1.921 -52.52,4.29 -81.929,7.195c-65.263,6.445 -128.266,14.399 -189.083,23.733c-105.091,16.13 -203.654,36.382 -296.07,60.098c-150.94,38.734 -285.485,86.709 -405.296,141.055c-137.346,62.301 -255.332,132.975 -356.463,207.701Zm-545.003,738.051l0.043,-0.079l-0.04,0.104c0,-0.008 -0.001,-0.016 -0.003,-0.025Z" style="fill:#836367;"/><path d="M803.877,3581.86l-122.243,-0l75.361,-196.233c89.342,-153.756 235.813,-331.745 467.605,-486.313c191.569,-127.746 441.416,-239.495 765.456,-308.348c83.884,-17.824 172.74,-32.773 266.844,-44.381c29.925,-3.691 60.382,-7.045 91.378,-10.045c108.467,-10.5 191.545,-13.447 192.597,-13.646c0.55,-0.105 1.14,-0.269 1.547,-0.653c0.378,-0.356 0.435,-0.943 0.649,-1.417c0.004,-0.008 -0.631,-1.426 -0.644,-1.439c-0.641,-0.607 -0.676,-0.614 -1.555,-0.658c-10.062,-0.497 -34.797,-1.71 -66.686,-2.76c-32.868,-1.083 -67.062,-1.798 -102.415,-2.009c0.12,0.275 0.216,0.497 0.215,0.501c-0.227,0.511 -0.287,1.145 -0.687,1.529c-0.431,0.415 -1.056,0.592 -1.637,0.705c-0.829,0.16 -49.688,1.962 -121.911,7.54c-24.874,1.921 -52.52,4.29 -81.929,7.195c-65.263,6.445 -128.266,14.399 -189.083,23.733c-105.091,16.13 -203.654,36.382 -296.07,60.098c98.612,-29.254 197.041,-51.188 293.362,-67.379c92.596,-15.565 183.244,-25.822 270.231,-32.172c1.888,-0.138 3.773,-0.274 5.657,-0.408c27.994,-1.993 55.604,-3.584 82.772,-4.818c100.804,-4.579 195.527,-4.258 281.24,-1.434c31.889,1.05 56.624,2.263 66.686,2.761c0.879,0.043 0.914,0.051 1.554,0.658c0.014,0.012 0.649,1.43 0.645,1.439c-0.214,0.473 -0.271,1.06 -0.649,1.416c-0.407,0.384 -0.997,0.549 -1.547,0.653c-1.052,0.199 -84.131,3.146 -192.598,13.646c-78.771,7.626 -154.058,17.53 -226.005,29.468c-93.148,15.455 -180.698,34.318 -262.968,56.054c-373.954,98.798 -638.798,256.956 -824.233,424.272c-135.465,122.23 -228.551,249.347 -290.838,361.782c-44.304,79.975 -68.499,144.485 -80.101,180.663Zm-148.69,38.834l0.041,-0.074l-0.038,0.097c0.001,-0.008 -0.001,-0.016 -0.003,-0.023Zm139.745,-6.919l0.041,-0.074l-0.038,0.097c0,-0.008 -0.001,-0.016 -0.003,-0.023Z" style="fill:#836367;"/></svg>
